<svg width="85" height="80" viewBox="0 0 80 80" fill="none" xmlns="http://www.w3.org/2000/svg">
<rect width="79.7468" height="80" fill="white"/>
<path d="M17 49V14.875H28.9531C33.0938 14.875 36.2344 15.6719 38.375 17.2656C40.5156 18.8438 41.5859 21.1641 41.5859 24.2266C41.5859 25.8984 41.1562 27.375 40.2969 28.6562C39.4375 29.9219 38.2422 30.8516 36.7109 31.4453C38.4609 31.8828 39.8359 32.7656 40.8359 34.0938C41.8516 35.4219 42.3594 37.0469 42.3594 38.9688C42.3594 42.25 41.3125 44.7344 39.2188 46.4219C37.125 48.1094 34.1406 48.9688 30.2656 49H17ZM24.0312 34.1406V43.3516H30.0547C31.7109 43.3516 33 42.9609 33.9219 42.1797C34.8594 41.3828 35.3281 40.2891 35.3281 38.8984C35.3281 35.7734 33.7109 34.1875 30.4766 34.1406H24.0312ZM24.0312 29.1719H29.2344C32.7812 29.1094 34.5547 27.6953 34.5547 24.9297C34.5547 23.3828 34.1016 22.2734 33.1953 21.6016C32.3047 20.9141 30.8906 20.5703 28.9531 20.5703H24.0312V29.1719ZM68.1875 35.0547H54.6875V49H47.6562V14.875H69.875V20.5703H54.6875V29.3828H68.1875V35.0547Z" fill="#002DA7"/>
</svg>
